<svg width="36" height="42" viewBox="0 0 36 42" fill="none" xmlns="http://www.w3.org/2000/svg">
<path d="M31.4141 28.4444C31.832 24.2901 31.4335 20.241 30.7204 16.1518C30.305 13.7604 30.1404 11.3337 30.2292 8.90966C30.3068 7.22581 29.8744 5.55698 28.9862 4.11168C27.9715 2.36582 26.2417 0.956502 24.1154 1.20261C24.0188 1.22259 23.919 1.22259 23.8224 1.20261C23.7444 1.17347 23.6717 1.13228 23.607 1.08061C22.5083 0.26657 20.6966 0.0204659 19.348 0.00153483C17.6865 -0.0266601 16.0422 0.333967 14.5526 1.05326C12.0364 2.28588 10.0955 4.66279 9.59782 7.36362C9.42334 8.48686 9.40161 9.62769 9.53319 10.7565C9.61936 11.6925 9.74862 12.6496 9.57843 13.5667C9.33931 14.8288 8.55946 15.9184 8.07044 17.111C7.45255 18.5973 7.15412 20.1918 7.19366 21.7954C7.24321 22.9439 7.59435 25.8593 8.93215 26.2758C10.7353 26.8395 12.6396 27.0183 14.5332 27.1929L19.8715 27.6893C20.7849 27.7734 21.7156 27.8576 22.6053 27.643C23.2709 27.4831 23.8849 27.1634 24.5441 26.9825C25.3623 26.7593 26.2269 26.755 27.0474 26.9699" fill="#AA4F7A"/>
<g style="mix-blend-mode:multiply" opacity="0.32">
<g style="mix-blend-mode:multiply" opacity="0.32">
<path d="M15.6491 5.229L12.2023 6.24918C12.1395 6.26377 12.0802 6.29021 12.0278 6.32701C11.9693 6.38084 11.9269 6.44918 11.905 6.52473C11.3134 7.99154 10.9124 9.52499 10.7116 11.0892C10.4574 13.1317 11.4095 15.151 10.7999 17.1892L10.0976 19.6187C9.74429 20.803 9.38884 22.0482 9.66674 23.2514C9.88217 24.1979 10.4574 25.0183 10.8796 25.8933C11.5142 27.2104 11.8001 28.662 11.7111 30.1149C11.7111 30.0687 14.5117 29.5155 14.768 29.4418C15.8138 29.1498 16.8423 28.8015 17.8486 28.3985C18.7233 28.0493 19.5721 27.6223 20.4488 27.3068C20.9723 27.1217 21.4527 26.9871 21.8146 26.5475C22.8164 25.3296 23.049 23.182 23.0878 21.6864C23.1317 19.9232 22.7917 18.1709 22.0904 16.5456C21.6006 15.4085 20.9263 14.3559 20.0934 13.4283" fill="#AA4F7A"/>
</g>
</g>
<path d="M5.0157 27.8157C3.07686 30.9099 1.88986 34.4247 1.23927 38.0006C0.959219 39.5466 0.784723 41.2062 1.51287 42.605C2.69987 44.9188 5.96789 44.2731 8.06829 43.8124C11.2695 43.1141 15.1774 41.69 17.1808 39.0818" fill="#EA7C99"/>
<path d="M35.0893 44.0815C35.8842 41.875 35.7097 39.1027 35.5201 36.9298C35.2896 34.1553 34.6929 31.6207 33.3422 29.1134C32.3297 27.2371 31.2655 25.1715 29.2728 24.1703C28.3077 23.6844 27.265 23.3667 26.2568 22.9524C25.0289 22.4433 23.8548 21.3516 24.1952 19.936C24.4106 19 25.1 18.2343 25.8087 17.5654C26.2142 17.1647 26.5886 16.7351 26.9289 16.2802C26.9485 16.2512 26.9751 16.2273 27.0065 16.2108C27.0533 16.1996 27.1026 16.204 27.1465 16.2234C27.6782 16.389 28.2477 16.4003 28.7858 16.2558C29.3239 16.1112 29.8074 15.8172 30.1776 15.4094C30.8798 14.6521 31.0694 13.043 30.4511 12.168C29.9169 11.4107 28.5834 11.1499 27.754 11.4906C28.0771 9.79106 28.1375 7.37629 27.4115 5.76715C26.735 4.20849 24.9879 3.03477 23.495 2.31539C22.0021 1.59601 20.3692 1.45928 18.7427 1.63597C17.0344 1.82318 15.2593 2.4479 14.2683 3.81725C13.8909 4.38432 13.6006 5.00227 13.4066 5.65146C12.8462 7.28811 12.4529 8.97488 12.2325 10.6871C12.0473 12.1385 11.9999 13.8591 12.3165 15.2958C12.4925 16.1965 12.943 17.0242 13.6091 17.6706C14.4385 18.432 15.1386 18.676 16.2675 18.8317C17.4459 18.9958 19.1326 19.2187 19.7143 20.3777C20.7527 22.416 19.068 23.3836 17.3317 23.9683C13.5768 25.2304 13.7061 28.964 13.202 32.155C12.9865 33.5685 12.3402 34.7107 11.8771 36.0379C11.6305 36.8465 11.4858 37.6814 11.4462 38.5242C11.4053 38.9954 11.1899 39.658 11.2631 40.1165C11.3407 40.6087 11.7457 40.8612 12.1399 41.183C13.3528 42.1695 14.725 42.9625 16.0757 43.7387C17.2477 44.3873 18.4842 44.918 19.766 45.3226C21.5562 45.9158 23.2128 46.6604 25.0698 47.0579C26.4628 47.3782 27.8798 47.5892 29.3072 47.689C31.4852 47.8131 33.521 47.0032 34.6024 45.1038C34.7944 44.7773 34.9573 44.4353 35.0893 44.0815Z" fill="#FF8DA8"/>
<g style="mix-blend-mode:multiply" opacity="0.2">
<g style="mix-blend-mode:multiply" opacity="0.2">
<path d="M22.4092 1.74536C22.6871 2.96957 22.4631 4.24006 22.3187 5.4853C22.1744 6.73054 22.1248 8.05362 22.7065 9.17265C23.0862 9.85768 23.6731 10.4117 24.3871 10.7591C25.101 11.1066 25.9074 11.2305 26.6962 11.1141C26.2953 8.70516 25.4733 6.38137 24.2662 4.24426" fill="#FF8DA8"/>
</g>
</g>
<path d="M15.2527 5.68112C15.0739 4.93439 13.6736 5.52126 13.3138 5.78629C13.0101 6.00716 12.5943 6.47412 13.0661 6.7665C13.5379 7.05888 14.5461 6.49936 14.9231 6.23854C15.1105 6.10181 15.3065 5.89146 15.2527 5.68112Z" fill="#843860"/>
<path d="M20.8387 5.3907C21.0175 4.64398 22.4177 5.23294 22.7775 5.49798C23.0791 5.70832 23.4949 6.1837 23.0231 6.47608C22.5513 6.76846 21.5431 6.20894 21.1661 5.94812C20.9808 5.8177 20.7848 5.61367 20.8387 5.3907Z" fill="#843860"/>
<path d="M29.3244 47.6957C31.5024 47.8198 33.5381 47.0099 34.6196 45.1105C34.806 44.7814 34.9631 44.4373 35.0892 44.0819C35.8841 41.8754 35.7096 39.1031 35.5201 36.9302C35.2896 34.1557 34.6928 31.6211 33.3421 29.1138C32.4373 27.431 31.4873 25.6115 29.8737 24.5261C29.8199 24.5577 29.7639 24.5892 29.7122 24.6229C26.7307 26.4802 24.0874 29.2105 20.5867 29.7006C18.5186 29.9888 16.4074 29.4293 14.5268 28.5374C14.2984 28.428 14.0593 28.3144 13.8137 28.2072C13.5164 29.4692 13.4152 30.868 13.2105 32.1638C12.9951 33.5773 12.3488 34.7195 11.8856 36.0467C11.639 36.8553 11.4943 37.6902 11.4548 38.533C11.4138 39.0042 11.1984 39.6668 11.2717 40.1253C11.3492 40.6175 11.7542 40.87 12.1484 41.1918C13.3613 42.1783 14.7336 42.9713 16.0843 43.7475C17.2563 44.3961 18.4927 44.9268 19.7745 45.3314C21.5647 45.9245 23.2214 46.6692 25.0783 47.0667C26.4742 47.3867 27.8941 47.597 29.3244 47.6957Z" fill="#F26757"/>
<g style="mix-blend-mode:multiply" opacity="0.25">
<g style="mix-blend-mode:multiply" opacity="0.25">
<path d="M23.1244 16.5388C24.2701 16.5388 25.1989 15.6319 25.1989 14.5132C25.1989 13.3945 24.2701 12.4875 23.1244 12.4875C21.9786 12.4875 21.0498 13.3945 21.0498 14.5132C21.0498 15.6319 21.9786 16.5388 23.1244 16.5388Z" fill="#FF8DA8"/>
</g>
<g style="mix-blend-mode:multiply" opacity="0.25">
<path d="M13.6261 13.8319C13.6258 13.3916 13.4784 12.9633 13.2063 12.6122C12.9341 12.261 12.5521 12.0062 12.1181 11.8862C12.0293 13.0263 12.0952 14.1728 12.3142 15.2959C12.3422 15.4221 12.3766 15.5483 12.4133 15.6724C12.7751 15.5117 13.0818 15.2527 13.2969 14.9263C13.5119 14.5999 13.6262 14.22 13.6261 13.8319Z" fill="#FF8DA8"/>
</g>
</g>
<path d="M35.8001 36.4797C35.6372 34.7249 35.276 32.993 34.723 31.3158C34.2921 29.9969 33.9001 28.413 32.8488 27.4454C31.2202 25.9456 28.9603 26.2759 27.3856 27.721C25.3304 29.6141 25.9616 32.0604 26.9267 34.2985C27.6139 35.8929 28.3981 37.4915 28.5338 39.2142C28.5571 39.3606 28.5393 39.5104 28.4821 39.6475C28.3442 39.9105 27.9823 39.9589 27.6786 39.9589C26.1404 39.9589 24.6303 39.5781 23.1395 39.2016L18.6759 38.0742C17.3725 37.746 16.0541 37.4137 14.7874 36.9635C13.6931 38.4261 12.7866 40.0141 12.0881 41.6921C14.1067 43.2592 16.2351 44.7758 18.6608 45.6634C22.2757 46.9886 26.8642 48.8943 30.8582 48.0845C31.8744 47.8992 32.8226 47.4555 33.6071 46.7982C34.3915 46.1408 34.9845 45.293 35.3262 44.3403C36.259 41.8604 36.0199 39.0586 35.8001 36.4797Z" fill="#FF8DA8"/>
<path d="M25.2873 22.3802C24.9616 22.1415 24.6852 21.8445 24.473 21.5051C23.0396 21.9727 21.4905 21.9801 20.0524 21.5262C20.0564 21.9058 19.9306 22.2759 19.6948 22.5779C21.5249 23.1555 23.5048 23.0855 25.2873 22.3802Z" fill="#F7BF54"/>
<path d="M22.0364 0.985991C22.8485 1.70327 23.0683 2.79706 23.1738 3.81934C23.3354 5.40535 23.3289 7.03552 23.9386 8.52897C24.5483 10.0224 25.9679 11.3876 27.7236 11.4402C27.8236 11.4512 27.9246 11.4313 28.0123 11.3834C28.0758 11.3273 28.1208 11.2541 28.1416 11.173C29.2596 8.20083 28.1416 4.65231 25.4574 2.66244C24.5116 1.9683 23.4043 1.45927 22.3272 0.956543" fill="#AA4F7A"/>
<g style="mix-blend-mode:multiply" opacity="0.2">
<g style="mix-blend-mode:multiply" opacity="0.2">
<path d="M13.1094 6.65877C14.4687 7.04581 15.8841 7.31505 17.2994 7.2246C18.7148 7.13415 20.1344 6.66088 21.1771 5.71643C22.2198 4.77198 22.8036 3.31849 22.5106 1.96387C20.6824 3.29083 18.4912 4.05673 16.2158 4.16408" fill="#FF8DA8"/>
</g>
</g>
<path d="M22.573 1.31415C22.9737 2.36798 22.4868 3.57747 21.6811 4.39781C20.3541 5.74823 18.3485 6.2194 16.4398 6.38978C14.5311 6.56016 12.5772 6.49916 10.7439 7.04606C11.2286 4.65654 13.2148 2.73609 15.5199 1.80215C17.825 0.86822 20.4058 0.809323 22.8832 1.08067" fill="#AA4F7A"/>
<path d="M15.7418 14.124C15.7429 14.1093 15.7429 14.0946 15.7418 14.0799C15.7349 14.0218 15.7163 13.9657 15.6871 13.9146C15.6578 13.8636 15.6186 13.8188 15.5715 13.7826C15.5245 13.7464 15.4706 13.7197 15.4129 13.7039C15.3553 13.6882 15.295 13.6837 15.2356 13.6907L10.3993 14.246C10.2969 14.2583 10.2017 14.3041 10.1294 14.3759C10.057 14.4477 10.0116 14.5413 10.0007 14.6415L9.13903 22.6998C9.12693 22.8171 9.16266 22.9343 9.23847 23.0261C9.31428 23.1178 9.42407 23.1767 9.54403 23.1899H9.59358C9.70618 23.1895 9.81465 23.1484 9.89815 23.0747C9.98164 23.0009 10.0343 22.8996 10.046 22.7903L10.8754 15.0874L15.1645 14.5931C15.2015 14.4674 15.2763 14.3555 15.3792 14.2718C15.4822 14.1882 15.6085 14.1367 15.7418 14.124Z" fill="#B9B5EC"/>
<path d="M18.4627 11.9638C18.4412 11.9638 18.4024 12.069 18.2925 12.2352C18.1324 12.4702 17.9087 12.6574 17.6463 12.7758C17.4733 12.8569 17.2845 12.9007 17.0926 12.9041C16.8772 12.9041 16.7609 12.8326 16.8018 12.618C16.8427 12.4035 16.9784 12.1721 17.0624 11.9197C17.162 11.6592 17.2476 11.3938 17.3188 11.1246C17.5752 10.1822 17.6742 9.20551 17.6118 8.23231C17.5622 7.48559 17.4308 7.03965 17.3964 7.04596C17.3619 7.05227 17.4201 7.50662 17.4222 8.23862C17.4278 9.19024 17.3061 10.1385 17.0603 11.0594C16.9849 11.3286 16.9073 11.5894 16.8169 11.8355C16.7738 11.9596 16.7242 12.0795 16.679 12.1973C16.6241 12.3201 16.5836 12.4485 16.5584 12.5802C16.5434 12.6538 16.5434 12.7295 16.5584 12.8031C16.5756 12.8846 16.6195 12.9584 16.6833 13.0135C16.7996 13.0993 16.9459 13.1371 17.0905 13.1186C17.3112 13.1041 17.5259 13.0424 17.7195 12.9377C17.9999 12.7922 18.226 12.564 18.3658 12.2857C18.4735 12.0879 18.4756 11.968 18.4627 11.9638Z" fill="#C45673"/>
<path d="M15.97 9.32422C15.9312 9.32422 15.901 9.66708 15.7546 10.1971C15.6737 10.5069 15.5663 10.8094 15.4336 11.1016C15.3554 11.2679 15.2586 11.4252 15.1449 11.5707C15.0407 11.717 14.8888 11.8245 14.714 11.8757C14.634 11.9009 14.5484 11.9044 14.4665 11.8859C14.3846 11.8673 14.3093 11.8275 14.2487 11.7705C14.1301 11.6371 14.04 11.482 13.9837 11.3141C13.8601 11.02 13.7684 10.714 13.7102 10.4012C13.6197 9.8627 13.6434 9.51563 13.6003 9.51143C13.5572 9.50722 13.4796 9.85429 13.527 10.4243C13.5549 10.7588 13.6273 11.0883 13.7425 11.4045C13.8036 11.6074 13.9095 11.7948 14.0527 11.9535C14.1421 12.0448 14.2565 12.1091 14.3823 12.1386C14.5075 12.1692 14.6384 12.1692 14.7636 12.1386C14.9983 12.0737 15.2029 11.9318 15.3431 11.7369C15.467 11.5694 15.5697 11.3879 15.649 11.1963C15.7813 10.8876 15.8795 10.5661 15.942 10.2371C16.0411 9.6776 16.0023 9.32422 15.97 9.32422Z" fill="#C45673"/>
<path d="M22.8831 9.13912C22.8422 9.13912 22.8573 9.53457 22.7301 10.1425C22.6565 10.4948 22.5401 10.8373 22.3833 11.1626C22.2953 11.3448 22.1707 11.5078 22.0171 11.6422C21.8574 11.776 21.6545 11.8505 21.4441 11.8526C21.3414 11.8442 21.2417 11.8147 21.1515 11.7662C21.0613 11.7176 20.9826 11.651 20.9206 11.5707C20.787 11.4146 20.6801 11.2384 20.6039 11.0491C20.464 10.7109 20.3649 10.3579 20.3088 9.99733C20.2118 9.38523 20.2527 8.99399 20.2118 8.98978C20.1709 8.98557 20.0718 9.37471 20.1235 10.0205C20.1596 10.4021 20.2487 10.7771 20.3885 11.1353C20.4665 11.3548 20.5823 11.5597 20.731 11.7411C20.8164 11.8476 20.9238 11.9352 21.0464 11.9983C21.1689 12.0614 21.3037 12.0985 21.4419 12.1071C21.7171 12.1091 21.9833 12.0117 22.1894 11.8336C22.3732 11.6768 22.5202 11.4831 22.6203 11.2657C22.775 10.9169 22.8794 10.5488 22.9305 10.1719C22.9973 9.53247 22.9133 9.13702 22.8831 9.13912Z" fill="#C45673"/>
<path d="M27.6785 15.5819C27.7151 15.5608 27.5773 15.3547 27.5579 14.9887C27.5494 14.7741 27.583 14.5599 27.657 14.3576C27.7489 14.111 27.8805 13.8802 28.0469 13.674C28.3531 13.2873 28.73 12.9592 29.1585 12.7064C29.4902 12.5108 29.7186 12.4225 29.7078 12.3846C29.697 12.3468 29.445 12.3846 29.0723 12.5466C28.5857 12.7671 28.1618 13.1008 27.8379 13.5184C27.6528 13.7488 27.5126 14.0105 27.4243 14.2903C27.353 14.5228 27.336 14.7679 27.3748 15.0076C27.448 15.4199 27.6591 15.605 27.6785 15.5819Z" fill="#C45673"/>
<path d="M27.9737 15.2727C27.9845 15.3021 28.1353 15.2853 28.3141 15.1338C28.4263 15.0322 28.5165 14.9097 28.5794 14.7735C28.6423 14.6373 28.6766 14.4902 28.6803 14.3408C28.6855 14.049 28.6023 13.7622 28.4412 13.5163C28.3184 13.3333 28.2107 13.2471 28.1827 13.266C28.1547 13.2849 28.2043 13.409 28.2732 13.5962C28.3684 13.8305 28.4167 14.0804 28.4154 14.3324C28.4064 14.5767 28.324 14.813 28.1784 15.0118C28.0642 15.1654 27.9565 15.2369 27.9737 15.2727Z" fill="#C45673"/>
<path d="M15.7352 14.8539C15.6427 14.8278 15.5526 14.794 15.4659 14.753C15.3776 14.7155 15.3026 14.6533 15.2505 14.5742C15.2431 14.5617 15.2393 14.5476 15.2393 14.5332C15.2393 14.5188 15.2431 14.5046 15.2505 14.4921C15.2735 14.4545 15.3062 14.4233 15.3453 14.4017C15.3905 14.3744 15.4509 14.3428 15.5133 14.3134L15.6081 14.2713L15.6814 14.2418C15.7088 14.2235 15.7334 14.2016 15.7546 14.1766C15.7697 14.1577 15.7912 14.1261 15.8128 14.0925C15.8121 14.0063 15.7765 13.9238 15.7137 13.8632L15.6491 13.8317L15.621 13.8106L15.5715 13.777C15.54 13.7548 15.5098 13.7309 15.481 13.7055C15.4237 13.6555 15.371 13.6006 15.3238 13.5414C15.2794 13.4853 15.239 13.4263 15.2031 13.3647C15.1816 13.31 15.188 13.3184 15.2031 13.2995C15.2457 13.2709 15.2958 13.2548 15.3475 13.2532C15.412 13.2501 15.4768 13.2501 15.5413 13.2532L15.9183 13.2658C16.3815 13.2658 16.6702 13.2658 16.6723 13.228C16.6745 13.1901 16.3923 13.1396 15.9334 13.0849L15.5564 13.0429H15.453C15.4121 13.0407 15.3711 13.0407 15.3302 13.0429C15.2306 13.0425 15.1334 13.0727 15.0523 13.1291C14.9968 13.1714 14.9604 13.2334 14.9511 13.3016C14.9434 13.363 14.9547 13.4252 14.9834 13.4804C15.0223 13.5609 15.0699 13.6371 15.1256 13.7076C15.181 13.7828 15.243 13.8532 15.3108 13.9179C15.3453 13.9474 15.3819 13.9789 15.4207 14.0062L15.4789 14.0462L15.5047 14.063L15.4056 14.1114C15.341 14.1451 15.2785 14.1787 15.2096 14.2229C15.135 14.2725 15.0754 14.3408 15.0372 14.4206C15.0188 14.4655 15.0114 14.514 15.0155 14.5622C15.0196 14.6104 15.0352 14.657 15.0609 14.6983C15.1404 14.8078 15.2525 14.8908 15.3819 14.936C15.4356 14.9579 15.4911 14.9755 15.5478 14.9886L15.69 15.0201C16.0519 15.0937 16.2738 15.1253 16.2824 15.0937C16.291 15.0622 16.0799 14.9717 15.7352 14.8539Z" fill="#C45673"/>
<path d="M15.5845 23.2932L4.27026 23.9579L5.99368 38.2908C6.01211 38.4419 6.08969 38.5801 6.21016 38.6765C6.33063 38.773 6.48464 38.8202 6.63996 38.8083L13.8589 38.3686C14.0039 38.36 14.1408 38.3005 14.2445 38.2012C14.3481 38.1019 14.4117 37.9694 14.4233 37.8281L15.5845 23.2932Z" fill="#F9A353"/>
<path d="M5.67276 35.67L14.7831 33.1753L15.4165 25.3694L4.78735 28.2785L5.67276 35.67Z" fill="#F7BF54"/>
<g style="mix-blend-mode:multiply" opacity="0.14">
<g style="mix-blend-mode:multiply" opacity="0.14">
<path d="M4.27026 23.9578L5.99368 38.2908C6.01211 38.4418 6.08969 38.58 6.21016 38.6765C6.33063 38.7729 6.48465 38.8202 6.63996 38.8082L12.3854 38.459C10.8503 36.2847 9.65047 33.902 8.82438 31.3872C8.02047 28.9216 7.66895 26.3367 7.78603 23.7517L4.27026 23.9578Z" fill="#F9A353"/>
</g>
</g>
<path d="M15.5945 21.9978L3.6501 22.7152C3.3841 22.7312 3.18172 22.9547 3.19808 23.2144L3.24358 23.9366C3.25995 24.1964 3.48885 24.394 3.75486 24.378L15.6992 23.6606C15.9652 23.6446 16.1676 23.4211 16.1512 23.1614L16.1057 22.4392C16.0894 22.1794 15.8605 21.9818 15.5945 21.9978Z" fill="#F7BF54"/>
<g style="mix-blend-mode:multiply" opacity="0.2">
<g style="mix-blend-mode:multiply" opacity="0.2">
<path d="M35.8002 36.4796C35.6373 34.7247 35.276 32.9929 34.7231 31.3156C34.2922 29.9967 33.9001 28.4128 32.8488 27.4453C31.6575 26.3494 30.1323 26.2337 28.7816 26.8142L26.0715 31.5049C26.2301 32.4694 26.5199 33.4088 26.9332 34.2983C27.4223 35.4321 27.9587 36.57 28.2775 37.7522C29.765 37.9981 31.2693 38.1352 32.7778 38.1624C33.8336 38.1942 34.89 38.1237 35.9316 37.952C35.882 37.443 35.8411 36.9613 35.8002 36.4796Z" fill="#FF8DA8"/>
</g>
</g>
<path d="M26.6789 36.4269C29.5764 37.0579 33.1417 36.9086 35.9423 35.5687C35.8604 34.7799 34.9104 32.0265 34.822 31.7383C34.1908 29.6538 33.7449 27.4641 32.0646 26.059C30.5566 24.7801 28.5014 24.4625 26.9116 25.7771C26.5564 26.0854 26.2602 26.4529 26.0369 26.8625C24.8586 28.9029 25.3347 31.8351 25.9702 33.9932C26.2028 34.8037 26.4391 35.615 26.6789 36.4269Z" fill="#DB5449"/>
<path d="M29.542 22.3149C29.0465 21.24 29.486 20.1988 28.8591 19.1597C28.5273 18.6149 27.9241 18.108 27.713 17.4938C27.5234 16.9532 27.5299 16.2317 27.4782 15.649C27.3341 14.062 27.4563 12.4627 27.8401 10.9142C27.8672 10.8321 27.8767 10.7455 27.8681 10.6596C27.8332 10.5428 27.7643 10.4383 27.6699 10.3588C27.0197 9.70411 26.4158 9.00696 25.8625 8.27222L26.4054 11.1035C26.3472 11.684 26.2697 12.2583 26.177 12.8472C26.0209 13.974 25.701 15.0732 25.227 16.1118C24.1262 18.373 23.4303 21.3178 24.557 23.7158C25.0202 24.6981 25.9508 25.5184 27.0517 25.6299C28.4498 25.7687 29.8651 24.7885 31.1986 25.2092C30.5631 24.2922 30.0089 23.3239 29.542 22.3149Z" fill="#AA4F7A"/>
<path d="M15.2722 43.7849C13.3333 42.7837 10.4552 40.9053 10.787 38.3959C10.8716 37.6164 11.0954 36.8575 11.4484 36.1536C11.7478 35.6172 12.0946 35.1355 11.7909 34.4855C11.5905 34.0648 11.0951 33.7662 10.7439 33.4717C10.3025 33.1217 9.91823 32.7082 9.60431 32.2454C9.58142 32.2186 9.5657 32.1867 9.55856 32.1526C9.55141 32.1184 9.55307 32.0831 9.56338 32.0497C9.76157 31.7069 11.1769 32.4515 11.401 32.5903C12.0277 32.9725 12.5433 33.5056 12.8982 34.1385C12.8594 34.0669 12.9219 33.7914 12.9111 33.6925C12.8835 33.5472 12.8371 33.4058 12.7732 33.2718C12.6814 32.9786 12.5691 32.6919 12.4372 32.4136C12.127 31.8289 11.6853 31.324 11.3191 30.775C11.2249 30.6502 11.1602 30.5065 11.1295 30.3544C11.115 30.2793 11.1231 30.2018 11.153 30.1312C11.1828 30.0606 11.2331 30 11.2976 29.9568C11.513 29.8369 11.7737 30.0094 11.9568 30.1671C12.3553 30.5163 12.8529 30.9076 13.0942 31.3872C13.3786 31.9509 13.538 32.6219 13.7405 33.2172C13.9559 33.2613 13.6953 31.8205 13.65 31.69C13.5014 31.2546 13.4604 30.8613 13.1955 30.4806C12.8508 29.9884 12.4027 29.4961 12.4005 28.8988C12.3934 28.8349 12.4027 28.7703 12.4275 28.7108C12.4523 28.6513 12.4919 28.5988 12.5427 28.558C12.7194 28.4507 12.937 28.6064 13.0748 28.7578C14.055 29.8453 14.3954 31.2946 14.5656 32.706L15.13 30.5521C15.1752 30.3838 15.283 30.1735 15.4575 30.2092C15.5132 30.2257 15.5632 30.257 15.6018 30.2997C16.0887 30.794 15.9163 31.5176 15.7914 32.1128C15.647 32.8028 15.5372 33.5011 15.4445 34.1995C15.3627 34.8116 15.2291 35.4195 15.2054 36.0379C15.1774 36.5932 15.507 36.9403 15.9982 37.2137C16.2656 37.338 16.5439 37.4387 16.8297 37.5145C17.1292 37.6176 17.4006 37.7901 17.7087 37.8826" fill="#FF8DA8"/>
<path d="M31.3926 9.88789C29.5744 9.31365 27.4158 9.27158 25.5266 9.27999H25.5093C25.2422 7.28803 23.7859 5.75882 22.041 5.75882C20.3973 5.75882 19.025 7.10923 18.6372 8.92451C18.3633 8.67567 18.0031 8.53734 17.629 8.53734C17.2549 8.53734 16.8947 8.67567 16.6208 8.92451C16.2934 7.0314 14.8737 5.58423 13.174 5.58423C11.2352 5.58423 9.6604 7.45841 9.6604 9.76169C9.6604 12.065 11.2352 13.9391 13.174 13.9391C15.1128 13.9391 16.6876 12.065 16.6876 9.76169C16.6876 9.69648 16.6876 9.63337 16.6876 9.56817C16.7651 9.38863 16.8955 9.2357 17.0624 9.12889C17.2292 9.02208 17.4249 8.96624 17.6244 8.9685C17.8239 8.97076 18.0182 9.03101 18.1825 9.14156C18.3468 9.25212 18.4736 9.40796 18.5467 9.5892C18.5467 9.70489 18.5317 9.82058 18.5317 9.93838C18.5317 12.2522 20.1086 14.1158 22.0453 14.1158C23.9819 14.1158 25.5589 12.2396 25.5589 9.93627C25.5589 9.86265 25.5589 9.79324 25.5589 9.72593C26.9489 9.71835 28.3375 9.8154 29.7123 10.0162C30.2401 10.094 30.7636 10.1992 31.2849 10.317C32.3771 10.5652 32.5775 11.6022 32.6292 12.5172C32.6464 12.8012 33.1031 12.8033 33.0837 12.5172C32.9911 11.2972 32.6679 10.2854 31.3926 9.88789ZM13.1783 13.4028C11.5411 13.4028 10.2119 11.7684 10.2119 9.75958C10.2119 7.75078 11.5411 6.1164 13.1783 6.1164C14.8156 6.1164 16.1447 7.75078 16.1447 9.75958C16.1447 11.7684 14.8134 13.4028 13.1783 13.4028ZM22.041 13.5795C20.4059 13.5795 19.0745 11.9451 19.0745 9.93627C19.0745 7.92747 20.4059 6.29309 22.041 6.29309C23.676 6.29309 25.0095 7.92747 25.0095 9.93627C25.0095 11.9451 23.6782 13.5795 22.041 13.5795Z" fill="#F7BF54"/>
</svg>
